<?xml version="1.0" encoding="utf-8"?>
<!-- Generator: Adobe Illustrator 22.0.1, SVG Export Plug-In . SVG Version: 6.00 Build 0)  -->
<svg version="1.1" id="Capa_1" xmlns="http://www.w3.org/2000/svg" xmlns:xlink="http://www.w3.org/1999/xlink" x="0px" y="0px"
	 viewBox="0 0 300 67" style="enable-background:new 0 0 300 67;" xml:space="preserve">
<style type="text/css">
	.st0{clip-path:url(#SVGID_2_);fill:url(#SVGID_3_);}
	.st1{fill:#CD2740;}
	.st2{fill:#FFFFFF;}
</style>
<g>
	<defs>
		<path id="SVGID_1_" d="M47.2,17.7c1.5,0.9,2.9,1.9,4.1,3.1c0.4-0.4,1.9-1.8,2.2-2.1c0.1,0.1,0.9,1,1,1.1c-0.2,0.3-1.9,1.8-2.2,2.1
			c2.7,3.1,4.5,6.9,5,11.2l0-0.4l3.1-0.2l0.1,1.5l-3.1,0.2c0,0.4,0,0.7,0,1.1c0,4-1.2,7.8-3.2,10.9l0.3-0.4l2.6,1.7l-0.8,1.2
			L53.7,47l0.1-0.1c-2.3,3.3-5.6,5.9-9.4,7.3l1,2.8l-1.4,0.5l-1-2.8c-1.8,0.5-3.8,0.8-5.8,0.8c-2,0-4-0.3-5.8-0.9l-1,2.8L29,57
			l1-2.8c-3.8-1.4-7-4-9.3-7.2l-2.5,1.7l-0.8-1.2l2.5-1.7C18,42.7,17,39.1,17,35.3c0-0.4,0-0.7,0-1.1l-3-0.2l0.1-1.5l3.1,0.2
			c0.5-4.1,2.3-7.9,4.9-10.8c-0.6-0.6-1.4-1.4-2.2-2.1c0.5-0.5,1-1,1-1.1c0.4,0.3,1.8,1.7,2.2,2.1c1.2-1.2,2.6-2.2,4.1-3.1V6.6
			c-7.4,2.6-13.5,7.9-17,14.8l4.4,2.1l-1.5,3.2l-4.3-2c-1.2,3.3-1.9,6.9-1.9,10.6c0,2,0.2,3.9,0.6,5.8l4.7-1.1l0.8,3.4l-4.7,1.1
			c1.7,5.4,4.9,10.1,9.1,13.7l2.9-3.7l2.8,2.2l-2.9,3.7c4.4,3,9.6,4.9,15.3,5.2v-4.8H39v4.8c5.6-0.3,10.7-2.1,15.1-5.1l-3-3.8
			l2.8-2.2l3,3.9c4.3-3.6,7.5-8.4,9.3-13.9l-4.6-1.1l0.8-3.4L67,41c0.4-1.9,0.6-3.8,0.6-5.8c0-3.7-0.7-7.2-1.9-10.5l-4.2,2l-1.5-3.2
			l4.3-2c-3.5-6.9-9.6-12.3-17.1-14.9V17.7z"/>
	</defs>
	<clipPath id="SVGID_2_">
		<use xlink:href="#SVGID_1_"  style="overflow:visible;"/>
	</clipPath>
	
		<linearGradient id="SVGID_3_" gradientUnits="userSpaceOnUse" x1="535.8292" y1="585.5069" x2="536.5036" y2="585.5069" gradientTransform="matrix(0 87.3741 87.3741 0 -51120.9414 -46810.957)">
		<stop  offset="0" style="stop-color:#D7D8D9"/>
		<stop  offset="0.2266" style="stop-color:#D7D8D9"/>
		<stop  offset="0.5239" style="stop-color:#D7D8D9"/>
		<stop  offset="0.7562" style="stop-color:#D7D8D9"/>
		<stop  offset="0.9529" style="stop-color:#D7D8D9"/>
		<stop  offset="1" style="stop-color:#D7D8D9"/>
	</linearGradient>
	<rect x="6.8" y="6.6" class="st0" width="60.7" height="58.9"/>
</g>
<path class="st1" d="M42.2,32V6.5h0l-4.9-5.1l-4.9,5.1h0v25.4c-1,1.1-1.7,2.7-1.7,4.3c0,3.6,2.9,6.5,6.5,6.5c3.6,0,6.5-2.9,6.5-6.5
	C43.7,34.6,43.1,33.2,42.2,32"/>
<g>
	<path class="st2" d="M210.1,61.7h-2.9v2.7h3.2v0.8h-4.2v-7.4h4v0.8h-3v2.3h2.9V61.7z"/>
	<path class="st2" d="M212.1,65.2v-7.4h1l2.4,3.7c0.5,0.9,1,1.6,1.3,2.4l0,0c-0.1-1-0.1-1.9-0.1-3v-3.1h0.9v7.4h-1l-2.4-3.7
		c-0.5-0.8-1-1.7-1.4-2.5l0,0c0.1,0.9,0.1,1.8,0.1,3v3.2H212.1z"/>
	<path class="st2" d="M223.6,61.7h-2.9v2.7h3.2v0.8h-4.2v-7.4h4v0.8h-3v2.3h2.9V61.7z"/>
	<path class="st2" d="M225.7,57.9c0.5-0.1,1.2-0.2,1.8-0.2c1,0,1.7,0.2,2.1,0.6c0.4,0.3,0.6,0.8,0.6,1.4c0,1-0.6,1.6-1.4,1.9v0
		c0.6,0.2,0.9,0.7,1.1,1.5c0.2,1,0.4,1.7,0.6,2h-1c-0.1-0.2-0.3-0.8-0.5-1.8c-0.2-1-0.6-1.4-1.5-1.4h-0.9v3.2h-1V57.9z M226.6,61.3
		h1c1,0,1.7-0.6,1.7-1.4c0-1-0.7-1.4-1.7-1.4c-0.5,0-0.8,0-0.9,0.1V61.3z"/>
	<path class="st2" d="M237.7,64.9c-0.4,0.2-1.3,0.4-2.3,0.4c-1.1,0-2-0.3-2.8-1c-0.6-0.6-1-1.6-1-2.7c0-2.2,1.5-3.8,4-3.8
		c0.9,0,1.5,0.2,1.8,0.3l-0.2,0.8c-0.4-0.2-0.9-0.3-1.6-0.3c-1.8,0-3,1.1-3,3c0,1.9,1.1,3,2.9,3c0.6,0,1.1-0.1,1.3-0.2v-2.2h-1.5
		v-0.8h2.4V64.9z"/>
	<path class="st2" d="M241.2,65.2v-3.1l-2.3-4.2h1.1l1,2c0.3,0.6,0.5,1,0.7,1.5h0c0.2-0.5,0.5-1,0.7-1.5l1.1-2h1.1l-2.5,4.2v3.1
		H241.2z"/>
	<path class="st2" d="M248.6,64c0.4,0.3,1.1,0.5,1.7,0.5c1,0,1.6-0.5,1.6-1.3c0-0.7-0.4-1.1-1.4-1.5c-1.2-0.4-2-1-2-2.1
		c0-1.1,1-2,2.4-2c0.8,0,1.3,0.2,1.6,0.4l-0.3,0.8c-0.2-0.1-0.7-0.4-1.4-0.4c-1,0-1.4,0.6-1.4,1.1c0,0.7,0.5,1,1.5,1.4
		c1.3,0.5,1.9,1.1,1.9,2.2c0,1.1-0.8,2.1-2.6,2.1c-0.7,0-1.5-0.2-1.9-0.5L248.6,64z"/>
	<path class="st2" d="M258.4,61.7h-2.9v2.7h3.2v0.8h-4.2v-7.4h4v0.8h-3v2.3h2.9V61.7z"/>
	<path class="st2" d="M260.4,57.9c0.5-0.1,1.2-0.2,1.8-0.2c1,0,1.7,0.2,2.1,0.6c0.4,0.3,0.6,0.8,0.6,1.4c0,1-0.6,1.6-1.4,1.9v0
		c0.6,0.2,0.9,0.7,1.1,1.5c0.2,1,0.4,1.7,0.6,2h-1c-0.1-0.2-0.3-0.8-0.5-1.8c-0.2-1-0.6-1.4-1.5-1.4h-0.9v3.2h-1V57.9z M261.4,61.3
		h1c1,0,1.7-0.6,1.7-1.4c0-1-0.7-1.4-1.7-1.4c-0.5,0-0.8,0-0.9,0.1V61.3z"/>
	<path class="st2" d="M268.4,65.2l-2.4-7.4h1l1.2,3.6c0.3,1,0.6,1.9,0.8,2.8h0c0.2-0.9,0.5-1.8,0.8-2.7l1.3-3.6h1l-2.7,7.4H268.4z"
		/>
	<path class="st2" d="M274.3,57.8v7.4h-1v-7.4H274.3z"/>
	<path class="st2" d="M281.6,64.9c-0.4,0.2-1.1,0.3-2,0.3c-2.1,0-3.7-1.3-3.7-3.7c0-2.3,1.6-3.9,3.9-3.9c0.9,0,1.5,0.2,1.8,0.3
		l-0.2,0.8c-0.4-0.2-0.9-0.3-1.5-0.3c-1.7,0-2.9,1.1-2.9,3c0,1.8,1,3,2.8,3c0.6,0,1.2-0.1,1.6-0.3L281.6,64.9z"/>
	<path class="st2" d="M287.1,61.7h-2.9v2.7h3.2v0.8h-4.2v-7.4h4v0.8h-3v2.3h2.9V61.7z"/>
	<path class="st2" d="M289,64c0.4,0.3,1.1,0.5,1.7,0.5c1,0,1.6-0.5,1.6-1.3c0-0.7-0.4-1.1-1.4-1.5c-1.2-0.4-2-1-2-2.1
		c0-1.1,1-2,2.4-2c0.8,0,1.3,0.2,1.6,0.4l-0.3,0.8c-0.2-0.1-0.7-0.4-1.4-0.4c-1,0-1.4,0.6-1.4,1.1c0,0.7,0.5,1,1.5,1.4
		c1.3,0.5,1.9,1.1,1.9,2.2c0,1.1-0.8,2.1-2.6,2.1c-0.7,0-1.5-0.2-1.9-0.5L289,64z"/>
</g>
<g>
	<path class="st1" d="M77.3,28.3v-8.5h27.8c8.1,0,12.2,3.3,12.2,9.9v13.6c0,6-4.1,9.1-12.2,9.1h-20c-5.6,0-8.4-2.5-8.4-7.6V40
		c0-4.9,2.8-7.3,8.4-7.3h21.5v-2.2c0-1.4-0.8-2.1-2.5-2.1H77.3z M104.2,43.8c1.6,0,2.5-0.8,2.5-2.3v-2.2H89.5
		c-1.4,0-2.1,0.8-2.1,2.4c0,1.5,0.7,2.2,2.1,2.2H104.2z"/>
	<path class="st1" d="M133.8,52.4h-10.7V30.5c0-7.1,4.4-10.7,13.1-10.7h14.1v8.5h-14.1c-1.6,0-2.5,0.7-2.5,2.1V52.4z"/>
	<path class="st1" d="M182.8,56.4c2.3,0,3.4-1,3.4-3.1v-5.7H163c-6.1,0-9.2-2.8-9.2-8.5V28.3c0-5.6,4.4-8.5,13.1-8.5h16.8
		c8.8,0,13.1,2.8,13.1,8.5v26.4c0,7.1-4.4,10.7-13.1,10.7h-28.3v-9H182.8z M186.2,38.7v-8.2c0-1.4-0.8-2.1-2.4-2.1H167
		c-1.7,0-2.5,0.7-2.5,2.1v6.1c0,1.5,0.8,2.2,2.5,2.2H186.2z"/>
	<path class="st1" d="M232.8,19.9c8.8,0,13.2,3.6,13.2,10.7v11.2c0,7.1-4.4,10.6-13.2,10.6H216c-8.8,0-13.2-3.6-13.2-10.7V30.5
		c0-7.1,4.4-10.7,13.2-10.7H232.8z M215.9,28.3c-1.6,0-2.5,0.7-2.5,2.1v10.7c0,1.5,0.8,2.2,2.5,2.2h16.8c1.7,0,2.5-0.7,2.5-2.1V30.4
		c0-1.4-0.8-2.1-2.5-2.1H215.9z"/>
	<path class="st1" d="M283.2,32.2c5.6,0,8.4,2.2,8.4,6.7v6.2c0,4.8-2.8,7.3-8.4,7.3H251v-9h27.9c1.4,0,2.1-0.8,2.1-2.3
		c0-1.3-0.7-2-2.1-2H259c-5.6,0-8.4-2.3-8.4-6.8v-5.3c0-4.7,2.8-7.1,8.4-7.1h31.6v8.5h-27.3c-1.4,0-2.1,0.7-2.1,2
		c0,1.3,0.7,1.9,2.1,1.9H283.2z"/>
</g>
</svg>
